<?xml version="1.0" encoding="UTF-8"?>
<svg id="Calque_2" data-name="Calque 2" xmlns="http://www.w3.org/2000/svg" width: "100"
  height: "100" viewBox="0 0 349.23 347">
  <defs>
   
    <style>
      .cls-1 {
         fill: blue;
        stroke: #1d1d1b;
        stroke-miterlimit: 10;
        stroke-width: 5px;
      }

      .cls-2 {
        fill: #1d1d1b;
        stroke-width: 0px;
      }
    </style>
  </defs>
  <g id="Calque_1-2" data-name="Calque 1">
    <g>

   
       <polygon class="cls-1" points="142.14 107.26 142.14 169.93 121.11 194.46 45.98 110.98 44.73 109.59 44.73 301.74 2.5 301.74 2.78 48.73 46.61 48.73 52.34 55.1 70.47 75.24 121.24 131.65 142.14 107.26"/> 
      <path class="cls-1" d="m271.45,281.07l18.24,19.92c-30.25,27.06-70.18,43.51-113.96,43.51s-86.41-17.58-117-46.29v-40.75c26.14,36.36,68.8,60.04,117,60.04,36.75,0,70.28-13.77,94.72-37.59Z"/>
      <path class="cls-1" d="m81.95,64.23l-18.38-19.81C93.6,18.31,132.82,2.5,175.73,2.5s81.39,15.51,111.3,41.17l-24.82,14.69c-24.08-18.12-54.03-28.86-86.48-28.86-35.82,0-68.59,13.08-92.78,33.73Z"/>
      
      <rect class="cls-1" x="148.91" y="48.73" width="41.94" height="253.01"/>
      <polygon class="cls-1" points="298.97 98.98 221.45 146.05 304.5 238 323.7 259.26 336.97 273.95 336.97 301.74 309.39 301.74 299.83 291.15 281.66 271.04 197.62 177.99 197.62 112.24 274.23 68.47 298.59 54.55 308.78 48.73 336.97 48.73 336.97 75.91 322.06 84.96 298.97 98.98"/>
      <path class="cls-1" d="m346.73,173.5c0,26.14-5.87,50.91-16.36,73.07l-20.53-20.53c6.39-16.28,9.89-34,9.89-52.54,0-22.92-5.36-44.6-14.89-63.83l23.3-13.78c11.89,23.29,18.59,49.67,18.59,77.61Z"/>
 
     
     
    </g>
  </g>
</svg>
